<svg width="135" height="225" viewBox="0 0 135 225" fill="none" xmlns="http://www.w3.org/2000/svg">
<path d="M3.72101 12.4824C-2.65332 41.5653 0.932239 77.4209 10.0953 99.731C17.4258 117.579 16.8681 181.535 15.6729 211.282C20.0552 222.437 108.897 234.389 118.459 211.282C118.459 178.082 119.973 108.336 126.029 94.9503C133.598 78.2177 137.184 39.9717 131.606 11.6856M3.72101 12.4824C0.135452 0.9289 123.638 -7.03888 131.606 11.6856M3.72101 12.4824C35.5927 23.6376 104.834 25.0716 131.606 11.6856M129.614 56.7044C129.216 65.4691 118.459 101.723 114.873 111.683C112.005 119.651 110.491 179.543 110.093 208.493C86.5873 226.819 26.0312 214.868 26.0312 204.509C26.0312 198.932 24.836 124.033 23.2424 116.065C21.6488 108.097 6.90818 65.4691 6.50978 56.7044M12.0873 58.6964C12.8841 59.7588 14.7964 61.5649 16.0713 60.29C17.2665 61.4852 20.5333 63.6365 24.0392 62.6804C24.9688 63.4772 27.5451 64.8317 30.4135 63.8756C31.2103 64.8052 33.4413 66.1066 35.9911 63.8756C37.1863 65.0707 40.2141 66.744 42.7638 63.8756C43.959 65.0707 46.9071 67.3018 49.1381 66.6643C50.4661 67.7267 53.6002 69.5328 55.5125 68.2579C57.2388 69.3203 61.2494 71.1264 63.4804 69.8515C66.0035 70.9139 71.528 72.5606 73.4403 70.6483C73.8387 69.8515 74.9542 68.2579 76.229 68.2579C77.8226 68.2579 81.0098 69.4531 81.4082 66.6643C82.6034 67.5939 85.7905 68.8953 88.9777 66.6643C90.4385 67.0627 93.4397 67.0627 93.7585 63.8756C95.0864 64.6724 97.9814 66.0269 98.9376 65.0707C100.266 66.0003 103.161 67.4611 104.117 65.8675L105.71 63.8756C107.304 64.5396 110.571 65.2301 110.889 62.6804C112.217 63.2116 115.112 63.9552 116.069 62.6804C117.264 61.0868 120.849 63.8756 120.053 60.6884C119.415 58.1387 122.177 58.8292 123.638 59.4932" stroke="#D9D9D9" style="stroke:#D9D9D9;stroke:color(display-p3 0.8510 0.8510 0.8510);stroke-opacity:1;"/>
<path d="M8.50179 52.3222C7.43941 52.1894 5.39431 51.0473 5.71302 47.5414C6.11142 43.1591 8.10333 43.5575 6.50974 41.5655C4.91616 39.5735 6.11128 37.5815 7.30654 37.1831C8.50179 36.7847 8.10333 33.5976 7.30654 31.6056C6.50974 29.6136 6.11128 25.6296 7.30654 25.6296C8.50179 25.6296 8.10333 20.4505 7.30654 20.0521C6.50974 19.6537 8.50172 20.4505 9.29851 18.0601M13.6809 10.889C14.7433 10.0922 17.1071 8.49862 18.0632 8.49862C19.2584 8.49862 21.6488 10.0922 22.4456 8.49862C23.2424 6.90504 25.6327 9.69381 26.8279 8.49862C28.0231 7.30344 30.4135 9.69385 30.8119 8.49862M35.5926 5.31142C37.1862 6.3738 40.6921 8.17986 41.967 6.905C43.2418 5.63013 46.4821 6.3738 47.9429 6.905C48.6069 7.30339 50.413 7.62211 52.3253 5.70981C54.2376 3.79751 58.9652 4.91302 61.09 5.70981C63.0819 6.241 67.3049 6.90498 68.2611 5.31142M72.245 4.51465C73.7058 5.04583 76.9461 6.02853 78.221 5.70981C79.8146 5.31142 83.4001 5.31146 83.7985 6.10823C84.1969 6.905 89.7745 7.70176 89.7745 6.905C89.7745 6.10823 94.9536 4.51465 98.1408 6.10823C101.328 7.70181 101.328 6.90505 102.922 6.10823C104.515 5.31142 108.499 10.0922 109.694 9.2954C110.889 8.49861 113.28 7.70181 114.475 8.49861C115.67 9.2954 115.67 10.0922 116.865 9.2954C118.061 8.49861 121.248 7.70181 121.646 9.2954M128.817 19.6537C129.348 21.5129 130.092 25.2312 128.817 25.2312C127.224 25.2312 128.02 27.2232 128.817 27.6216C129.614 28.02 129.216 31.6056 128.02 31.6056C126.825 31.6056 128.817 33.1991 128.817 35.1911C128.817 37.1831 129.614 39.5735 130.012 38.3783C130.411 37.1831 131.208 43.5574 130.012 43.9558C128.817 44.3542 130.012 46.3462 130.012 47.5414C130.012 48.7366 129.614 51.127 128.817 51.9237" stroke="#D9D9D9" style="stroke:#D9D9D9;stroke:color(display-p3 0.8510 0.8510 0.8510);stroke-opacity:1;"/>
</svg>
