<svg width="272" height="256" viewBox="0 0 272 256" fill="none" xmlns="http://www.w3.org/2000/svg">
<path d="M4.63289 139.818C3.35489 138.54 1.43791 140.35 0.63916 141.415C32.8552 179.489 99.8433 255.476 110.067 254.837C126.362 225.124 168.509 201.72 187.546 193.733M4.63289 139.818C6.23038 141.415 105.674 244.453 107.671 243.655M4.63289 139.818L3.0354 117.852M107.671 243.655C109.269 243.016 106.739 231.141 105.275 225.283M107.671 243.655C121.782 225.15 158.072 187.902 190.341 186.944C189.75 181.914 188.983 172.985 189.404 168.173M105.275 225.283C77.7181 200.389 18.6908 144.051 3.0354 117.852M105.275 225.283C114.848 206.662 144.701 169.001 188.344 165.131M190.341 164.978C189.844 165.309 189.551 166.489 189.404 168.173M190.341 164.978C201.923 137.821 235.47 128.236 245.455 125.44C253.442 123.204 261.829 113.06 265.024 108.267M190.341 164.978C189.672 165.021 189.007 165.072 188.344 165.131M3.0354 117.852L1.83728 116.654C6.62975 109.465 19.809 91.2539 34.1865 75.918C48.5639 60.5821 78.7831 55.6831 92.0955 55.1506M189.404 168.173C193.311 170.17 201.444 175.442 202.722 180.554C206.05 172.433 217.019 154.515 234.272 147.805C251.525 141.096 261.962 133.561 265.024 130.632C265.556 123.576 266.302 109.226 265.024 108.267M265.024 108.267C255.852 94.6673 202.091 32.9828 175.568 2.94239M188.344 194.532C195.799 193.999 210.39 190.458 209.112 180.554C212.307 174.031 222.131 159.467 235.87 153.396C253.043 145.808 266.621 133.428 268.219 132.23C269.816 131.031 271.494 109.865 270.216 108.267C268.938 106.67 211.774 37.4451 180.357 0.835938L177.561 5.20156C177.561 5.20156 175.298 2.6363 175.568 2.94239M175.568 2.94239C172.904 6.23397 163.104 13.1366 145.212 14.4146C122.847 16.0121 98.8848 40.7732 92.0955 55.1506M92.0955 55.1506L188.344 165.131" stroke="#D9D9D9" style="stroke:#D9D9D9;stroke:color(display-p3 0.8510 0.8510 0.8510);stroke-opacity:1;"/>
</svg>
