<svg width="37" height="35" viewBox="0 0 37 35" fill="none" xmlns="http://www.w3.org/2000/svg">
<path d="M3.00073 3.00067C3.02658 3.01303 3.05242 3.02539 5.53997 5.62693C8.02751 8.22847 12.976 13.4188 16.7085 17.0575C20.441 20.6962 22.8077 22.6259 25.0312 24.7119C27.2547 26.7978 29.2632 28.9816 30.3747 30.2039C31.4862 31.4261 31.6397 31.6207 32.0007 32.0007" stroke="black" style="stroke:black;stroke-opacity:1;" stroke-width="6" stroke-linecap="round"/>
<path d="M3.00073 32.0007C3.00073 31.9616 3.19191 31.6464 6.02326 28.2968C8.63065 25.2122 13.7468 19.4375 16.6472 16.1958C19.5477 12.9541 20.1112 12.4515 21.2412 11.6569C24.0026 9.71546 26.3446 8.24509 27.5714 7.3472C29.8603 5.67191 31.3433 4.93209 32.5351 4.27191C32.9743 3.98996 33.3305 3.71005 33.5968 3.45315C33.726 3.32201 33.8432 3.1893 34.0007 3.00067" stroke="black" style="stroke:black;stroke-opacity:1;" stroke-width="6" stroke-linecap="round"/>
</svg>
