<svg width="231" height="249" viewBox="0 0 231 249" fill="none" xmlns="http://www.w3.org/2000/svg">
<path d="M66.744 210.551C94.4893 222.39 136.375 216.765 151.73 212.678M66.744 210.551C20.881 215.09 -18.2457 222.308 10.0865 232.973C124.656 276.1 329.313 216.06 151.73 212.678M66.744 210.551C54.0439 198.975 31.906 167.471 33.2147 126M66.744 210.551C67.2049 212.66 68.084 215.791 69.2694 218.597M151.73 212.678C151.818 213.558 151.73 215.613 151.076 218.597M151.73 212.678C154.387 209.8 157.727 205.201 161.198 198.967M33.2147 126C33.3874 120.529 33.9682 114.883 35.0328 109.087C58.7105 84.5642 181.165 95.5574 181.327 109.087C181.398 114.946 181.244 120.585 180.901 126M33.2147 126C55.6638 135.443 116.63 148.663 180.901 126M180.901 126C191.378 114.85 215.292 98.0762 227.13 120.178C241.929 147.806 202.662 204.886 161.198 198.967M180.901 126C180.442 133.253 179.642 140.103 178.586 146.538M47.2944 117.121C50.0055 118.112 53.277 119.156 57.0192 120.178M165.683 117.121C162.807 118.25 159.905 119.267 156.986 120.178M57.0192 120.178C79.7103 126.38 119.707 131.823 156.986 120.178M57.0192 120.178C75.4628 113.023 121.277 103.005 156.986 120.178M69.2694 218.597C70.6215 221.799 72.3721 224.579 74.3547 224.939C79.0057 225.785 114.522 235.688 149.193 224.939C150.083 222.525 150.682 220.393 151.076 218.597M69.2694 218.597C46.1592 224.658 23.0994 238.47 115.791 238.47C178.368 238.47 177.931 225.785 151.076 218.597M161.198 198.967C162.934 195.849 164.703 192.322 166.436 188.397M166.436 188.397C186.245 180.504 222.057 157.954 206.835 130.893C200.808 120.178 181.66 130.048 178.586 146.538M166.436 188.397C171.264 177.46 175.812 163.431 178.586 146.538" stroke="#D9D9D9" style="stroke:#D9D9D9;stroke:color(display-p3 0.8510 0.8510 0.8510);stroke-opacity:1;"/>
<path d="M92.6758 50.981C80.1605 67.2172 84.9242 79.7325 88.8705 83.9607C79.7091 81.001 64.7687 71.2762 78.2989 56.0548C91.829 40.8334 81.3995 30.5448 74.4935 27.3032C85.769 28.4307 105.191 34.7448 92.6758 50.981Z" stroke="#D9D9D9" style="stroke:#D9D9D9;stroke:color(display-p3 0.8510 0.8510 0.8510);stroke-opacity:1;"/>
<path d="M111.701 27.3032C100.877 42.5246 107.191 52.8132 111.701 56.0548C110.433 52.2494 111.194 41.679 124.386 29.8401C129.46 25.2867 124.386 -3.98526 97.3257 1.08856C106.064 2.35701 122.526 12.0818 111.701 27.3032Z" stroke="#D9D9D9" style="stroke:#D9D9D9;stroke:color(display-p3 0.8510 0.8510 0.8510);stroke-opacity:1;"/>
</svg>
