<svg width="200" height="151" viewBox="0 0 200 151" fill="none" xmlns="http://www.w3.org/2000/svg">
<path d="M36.6443 149.626C62.5129 148.417 115.266 142.808 119.327 130.043M36.6443 149.626C33.5014 136.813 29.1013 102.627 36.6443 68.3938M36.6443 149.626C25.8775 140.681 3.98628 119.454 2.55571 106.109C-2.66637 73.0356 3.28091 46.8768 6.90731 37.9316M119.327 130.043C139.675 133.912 181.387 140.488 185.449 135.846C190.526 130.043 204.306 17.3679 197.779 11.5656C191.251 5.76331 118.476 -2.21487 114.61 1.41158C110.744 5.03802 104.096 -2.20944 104.096 36.7186M119.327 130.043C122.292 120.726 122.861 95.8987 122.67 75.6467M122.228 56.0638C104.096 53.6462 61.5942 52.7275 36.6443 68.3938M122.228 56.0638C120.827 53.4613 118.099 50.0298 114.61 46.3795C111.561 43.1906 107.931 39.8347 104.096 36.7186M122.228 56.0638C122.343 59.1126 122.586 58.3696 122.67 62.3358M36.6443 68.3938C26.4902 59.4485 6.32708 40.8328 6.90731 37.9316M6.90731 37.9316C7.6326 34.3052 68.557 21.9753 81.6122 24.1511C87.9157 25.2017 96.4173 30.4794 104.096 36.7186M165.866 123.985L168.78 118.908M181.097 125.436L179.449 120.359M179.449 120.359L175.295 107.559L168.78 118.908M179.449 120.359L168.78 118.908M128.151 29.6978L126.374 25.3461M115.821 29.6978L117.743 25.3461M117.743 25.3461L122.228 15.1921L126.374 25.3461M117.743 25.3461H126.374M122.67 62.3358C140.481 48.5554 148.314 44.6562 150.635 36.7186C154.503 45.0159 165.866 57.9841 173.844 66.6876C182.015 75.6013 163.917 94.8939 151.36 81.1934M122.67 62.3358C122.729 65.1647 122.64 72.5273 122.67 75.6467M122.67 75.6467C128.149 88.6162 141.178 82.5726 147.734 78.2922C148.293 79.0933 150.695 80.4681 151.36 81.1934M144.107 80.4681C142.173 86.5121 138.885 97.7317 135.404 98.312C131.922 98.8922 148.217 98.8421 156.437 98.6003C153.968 94.1634 151.36 84.8198 151.36 81.1934M13.5552 98.6003C20.0828 103.422 27.9409 88.7019 19.3575 84.8198C10.7741 80.9378 9.20347 98.5688 13.5552 98.6003ZM56.2272 122.065C46.0732 124.241 46.3633 134.105 56.2272 135.846C68.5571 138.022 62.7548 120.666 56.2272 122.065ZM77.9859 107.559C82.3376 108.285 88.5751 108.43 87.4146 100.306C85.964 90.1524 76.8655 91.733 75.81 95.9548C73.6341 104.658 76.4448 107.303 77.9859 107.559ZM50.4249 86.526C52.1172 88.9436 56.3723 92.3283 59.8536 86.526C64.2054 79.2731 59.1284 75.6467 56.2272 75.6467C53.326 75.6467 44.6226 79.9984 50.4249 86.526ZM101.195 114.087C93.9422 116.263 94.2323 128.593 104.096 128.593C116.426 128.593 108.448 110.461 101.195 114.087ZM97.5687 75.6467C97.5687 82.8996 103.661 86.3809 107.723 82.8996C112.8 78.5478 112.074 69.8443 107.723 68.3938C103.371 66.9432 97.5687 68.3938 97.5687 75.6467ZM44.0173 48.5554C48.249 54.1021 44.5976 60.305 38.215 57.9841C30.2368 55.083 37.4897 44.9289 44.0173 48.5554ZM54.8967 46.3795C57.1926 50.4756 67.9769 48.6659 65.656 42.2834C62.7548 34.3052 56.5155 38.398 54.8967 39.8519C53.5662 41.0469 52.3891 41.9058 54.8967 46.3795ZM71.4583 37.9316C73.7542 42.2834 87.1245 37.4965 83.0629 32.8546C77.9859 27.0523 64.9307 33.5799 71.4583 37.9316Z" stroke="#D9D9D9" style="stroke:#D9D9D9;stroke:color(display-p3 0.8510 0.8510 0.8510);stroke-opacity:1;"/>
</svg>
