<svg width="269" height="202" viewBox="0 0 269 202" fill="none" xmlns="http://www.w3.org/2000/svg">
<path d="M238.103 144.573C240.603 144.74 245.703 143.473 246.103 137.073C246.503 130.673 260.603 62.4066 267.603 29.0733C268.269 26.9066 267.803 22.2733 260.603 21.0733M238.103 144.573C237.77 146.407 236.603 150.373 234.603 151.573C232.603 152.773 190.77 184.073 170.103 199.573C168.77 200.74 164.803 202.573 159.603 200.573C154.403 198.573 51.4366 162.74 0.603271 145.073C0.455078 144.573 0.353149 142.673 1.13098 139.073M238.103 144.573L236.603 141.573M260.603 21.0733C253.403 19.8733 164.603 6.90665 121.103 0.573313C118.103 0.23998 111.603 0.873313 109.603 6.07331C107.603 11.2733 96.4366 67.5733 91.1033 95.0734V98.5734M260.603 21.0733C265.402 23.4733 265.27 25.4067 264.603 26.0734C257.77 61.4067 244.003 132.973 243.603 136.573C243.203 140.173 238.77 141.407 236.603 141.573M91.1033 98.5734C93.1033 98.5734 92.6033 98.0734 95.1033 98.5734M91.1033 98.5734H95.1033M91.1033 98.5734C90.1033 98.4067 87.6033 98.3734 85.6033 99.5734C83.6033 100.773 29.7699 124.407 3.10327 136.073C2.27634 136.808 1.26708 138.009 1.13098 139.073M236.603 141.573C236.603 140.74 235.703 138.873 232.103 138.073C231.061 137.842 222.836 135.508 210.603 131.996M236.603 141.573C216.103 158.74 173.903 193.573 169.103 195.573C164.303 197.573 160.77 196.407 159.603 195.573C108.937 177.74 6.70327 141.873 3.10327 141.073C1.4879 140.714 1.02021 139.939 1.13098 139.073M95.1033 98.5734C100.508 100.144 106.588 101.91 113.103 103.801M210.603 131.996L207.603 135.073L111.103 107.573L113.103 103.801M210.603 131.996C185.767 124.868 144.409 112.887 113.103 103.801M188.22 159.073L183.103 163.073L172.603 159.779M188.22 159.073L192.696 155.573M188.22 159.073L177.116 155.573M62.9121 119.573L55.6033 123.073L71.6033 128.093M62.9121 119.573L69.1033 116.609M62.9121 119.573L75.1033 123.416M192.696 155.573L197.173 152.073M192.696 155.573L179.603 151.446M69.1033 116.609L75.1033 113.735M69.1033 116.609L89.1033 122.914M197.173 152.073L201.103 149.001M197.173 152.073L186.103 148.597M75.1033 113.735L81.1033 110.862M75.1033 113.735L89.1033 118.132M201.103 149.001L205.853 145.287L206.62 144.688M201.103 149.001L192.696 146.329M81.1033 110.862L87.9709 107.573M81.1033 110.862L92.1033 114.358M87.9709 107.573L91.1033 106.073L102.103 109.341M87.9709 107.573L100.758 111.573M206.62 144.688L210.603 141.573L198.103 137.86M206.62 144.688L196.664 141.573M192.696 146.329L196.664 141.573M192.696 146.329L188.9 145.122M196.664 141.573L195.103 141.085M185.103 143.915L188.22 138.932M185.103 143.915L188.9 145.122M185.103 143.915L180.603 142.485M188.22 138.932L180.603 136.549M188.22 138.932L195.103 141.085M177.734 141.573L180.603 136.549M177.734 141.573L180.603 142.485M177.734 141.573L172.603 139.943M180.603 136.549L173.103 134.203M180.603 136.549L182.603 133.255M170.103 139.148L173.103 134.203M170.103 139.148L172.603 139.943M170.103 139.148L164.103 137.241M173.103 134.203L166.103 132.014M173.103 134.203L175.103 131.027M161.926 136.549L164.696 131.573M161.926 136.549L164.103 137.241M161.926 136.549L156.103 134.699M164.696 131.573L159.103 129.824M164.696 131.573L166.103 132.014M154.545 134.203L157.603 129.355M154.545 134.203L156.103 134.699M154.545 134.203L148.603 132.315M157.603 129.355L151.603 127.478M157.603 129.355L159.103 129.824M147.103 131.838L150.103 127.009M147.103 131.838L148.603 132.315M147.103 131.838L140.103 129.614M150.103 127.009L144.603 125.288M150.103 127.009L151.603 127.478M139.289 129.355L142.318 124.573M139.289 129.355L131.908 127.009M139.289 129.355L140.103 129.614M142.318 124.573L137.603 123.099M142.318 124.573L144.603 125.288M131.908 127.009L135.103 122.317M131.908 127.009L124.245 124.573M131.908 127.009L129.103 130.695M135.103 122.317L130.103 120.753M135.103 122.317L137.603 123.099M124.245 124.573L127.603 119.971M124.245 124.573L116.103 121.986M124.245 124.573L121.603 128.339M127.603 119.971L123.353 118.641M127.603 119.971L130.103 120.753M116.103 121.986L119.103 117.312M116.103 121.986L109.103 119.761M116.103 121.986L113.103 125.67M119.103 117.312L115.603 116.217M119.103 117.312L123.353 118.641M109.103 119.761L112.103 115.122M109.103 119.761L101.397 117.312M109.103 119.761L106.103 123.471M112.103 115.122L108.103 113.871M112.103 115.122L115.603 116.217M101.397 117.312L104.103 112.62M101.397 117.312L100.103 116.901M104.103 112.62L100.758 111.573M104.103 112.62L108.103 113.871M100.758 111.573L102.103 109.341M102.103 109.341L109.617 111.573M108.103 113.871L109.617 111.573M109.617 111.573L117.351 113.871M115.603 116.217L117.351 113.871M117.351 113.871L125.249 116.217M123.353 118.641L125.249 116.217M125.249 116.217L131.908 118.195M130.103 120.753L131.908 118.195M131.908 118.195L139.289 120.388M137.603 123.099L139.289 120.388M139.289 120.388L146.603 122.561M144.603 125.288L146.603 122.561M146.603 122.561L153.378 124.573M151.603 127.478L153.378 124.573M153.378 124.573L161.103 126.868M159.103 129.824L161.103 126.868M161.103 126.868L168.103 128.948M166.103 132.014L168.103 128.948M168.103 128.948L175.103 131.027M175.103 131.027L182.603 133.255M182.603 133.255L190.103 135.483M188.103 138.573L190.103 135.483M190.103 135.483L198.103 137.86M195.103 141.085L198.103 137.86M188.9 145.122L186.103 148.597M186.103 148.597L183.103 147.655M180.603 142.485L177.734 145.968M177.734 145.968L175.04 145.122M177.734 145.968L183.103 147.655M169.603 143.415L172.603 139.943M169.603 143.415L168.103 142.944M169.603 143.415L175.04 145.122M161.103 140.745L164.103 137.241M161.103 140.745L153.378 138.319M161.103 140.745L158.103 144.667M161.103 140.745L168.103 142.944M153.378 138.319L156.103 134.699M153.378 138.319L145.603 135.877M153.378 138.319L150.603 142.303M145.603 135.877L148.603 132.315M145.603 135.877L145.103 135.72M137.256 133.255L140.103 129.614M137.256 133.255L130.308 131.073M137.256 133.255L138.103 133.522M129.103 130.695L123.103 128.811M129.103 130.695L130.308 131.073M121.603 128.339L115.103 126.298M121.603 128.339L123.103 128.811M113.103 125.67L107.603 123.943M113.103 125.67L115.103 126.298M106.103 123.471L100.103 121.587M106.103 123.471L107.603 123.943M100.103 116.901L97.1033 120.645M100.103 116.901L92.1033 114.358M97.1033 120.645L92.1033 119.074M97.1033 120.645L100.103 121.587M92.1033 114.358L89.1033 118.132M89.1033 118.132L92.1033 119.074M92.1033 119.074L89.1033 122.914M89.1033 122.914L91.6033 123.702M100.103 121.587L96.6033 125.278M96.6033 125.278L100.353 126.461M96.6033 125.278L91.6033 123.702M107.603 123.943L104.103 127.643M104.103 127.643L107.958 128.858M104.103 127.643L100.353 126.461M115.103 126.298L111.812 130.073M111.812 130.073L116.603 131.584M111.812 130.073L107.958 128.858M123.103 128.811L119.603 132.53M119.603 132.53L125.103 134.264M119.603 132.53L116.603 131.584M130.308 131.073L127.603 135.052M127.603 135.052L133.603 136.943M127.603 135.052L125.103 134.264M138.103 133.522L135.602 137.573M138.103 133.522L145.103 135.72M135.602 137.573L141.946 139.573M135.602 137.573L133.603 136.943M145.103 135.72L141.946 139.573M141.946 139.573L149.603 141.988M141.946 139.573L138.603 143.433M150.603 142.303L158.103 144.667M150.603 142.303L149.603 141.988M158.103 144.667L159.103 144.983M168.103 142.944L165.103 146.874M165.103 146.874L166.603 147.347M165.103 146.874L159.103 144.983M175.04 145.122L172.079 149.073M172.079 149.073L175.04 150.007M172.079 149.073L166.603 147.347M183.103 147.655L179.603 151.446M179.603 151.446L175.04 150.007M175.04 150.007L171.603 153.836M171.603 153.836L168.103 152.732M171.603 153.836L177.116 155.573M166.603 147.347L163.103 151.156M163.103 151.156L159.353 149.974M163.103 151.156L168.103 152.732M159.103 144.983L155.603 148.792M155.603 148.792L149.603 146.901M155.603 148.792L159.353 149.974M149.603 141.988L146.103 145.797M146.103 145.797L138.603 143.433M146.103 145.797L149.603 146.901M138.603 143.433L130.076 140.745M133.603 136.943L130.076 140.745M130.076 140.745L121.834 138.147M125.103 134.264L121.834 138.147M121.834 138.147L113.103 135.395M116.603 131.584L113.103 135.395M113.103 135.395L106.603 133.346M107.958 128.858L104.103 132.558M104.103 132.558L99.1033 130.982M104.103 132.558L106.603 133.346M100.353 126.461L96.6033 130.194M96.6033 130.194L90.721 128.339M96.6033 130.194L99.1033 130.982M91.6033 123.702L88.5114 127.643M88.5114 127.643L83.1033 125.938M88.5114 127.643L90.721 128.339M71.6033 128.093L75.1033 123.416M71.6033 128.093L80.1033 130.76M75.1033 123.416L83.1033 125.938M83.1033 125.938L80.1033 130.76M80.1033 130.76L87.4783 133.073M90.721 128.339L87.4783 133.073M87.4783 133.073L94.8781 135.395M99.1033 130.982L94.8781 135.395M94.8781 135.395L103.103 137.975M106.603 133.346L103.103 137.975M103.103 137.975L146.103 151.466M149.603 146.901L146.103 151.466M146.103 151.466L155.603 154.446M159.353 149.974L155.603 154.446M155.603 154.446L164.103 157.113M168.103 152.732L164.103 157.113M164.103 157.113L172.603 159.779M177.116 155.573L172.603 159.779M254.103 31.0734L115.603 10.5734L99.1033 91.0734L236.603 134.073L254.103 31.0734ZM135.603 155.573L93.6033 141.573L68.1033 155.573L113.103 171.573L135.603 155.573Z" stroke="#D9D9D9" style="stroke:#D9D9D9;stroke:color(display-p3 0.8510 0.8510 0.8510);stroke-opacity:1;"/>
</svg>
