<svg width="309" height="247" viewBox="0 0 309 247" fill="none" xmlns="http://www.w3.org/2000/svg">
<path d="M0.511558 67.2762V80.848C1.07616 81.4074 1.64707 81.973 2.22408 82.5445M0.511558 67.2762C12.5485 81.5751 37.8825 110.561 42.9235 112.112C49.2247 114.05 110.783 173.185 114.66 174.639C117.762 175.802 157.314 214.223 176.703 233.288M0.511558 67.2762C13.841 60.7327 127.747 4.26424 128.959 3.29482C130.171 2.32541 136.957 -1.06754 145.681 1.356C154.406 3.77953 293.76 122.533 302.242 129.319C309.028 134.747 308.786 140.144 307.816 142.163M176.703 233.288V245.822M176.703 233.288C180.338 227.472 300.545 148.465 302.242 147.253C303.599 146.284 306.524 143.456 307.816 142.163M176.703 245.822C178.224 245.376 183.004 243.467 185.912 241.286C224.527 215.354 302.775 161.94 306.847 155.735C307.493 154.281 308.592 149.531 307.816 142.163M176.703 245.822C174.975 246.329 172.205 245.906 167.978 243.225C167.683 243.038 167.254 242.712 166.7 242.256M13.5987 96.1163C7.30816 98.1968 -3.77345 98.3952 2.22408 82.5445M2.22408 82.5445C3.99593 78.3437 9.38151 70.5237 16.7491 72.8503M2.22408 82.5445C4.54731 84.8456 6.96959 87.2435 9.47845 89.7257M25.4738 80.848C22.5601 79.4151 15.2819 79.1845 9.47845 89.7257M9.47845 89.7257C9.15581 96.3798 11.3702 108.331 22.8087 102.902M9.47845 89.7257C12.1505 92.3693 14.9207 95.1086 17.7741 97.9285M22.8087 102.902C21.1046 101.219 19.4254 99.5604 17.7741 97.9285M22.8087 102.902C48.6589 128.432 80.2468 159.501 107.389 185.925M34.1985 88.1186C30.1156 87.5495 21.1145 88.7147 17.7741 97.9285M17.7741 97.9285C15.6552 104.918 14.2286 117.54 25.4738 112.112M25.4738 112.112C26.7665 106.857 32.0662 96.6639 42.9235 97.9285M25.4738 112.112C26.0902 116.07 29.4737 123.211 38.0762 120.109M38.0762 120.109C38.3185 115.181 41.8569 105.326 54.0715 105.326M38.0762 120.109C37.4299 124.068 38.2701 131.403 46.8009 129.076M46.8009 129.076C48.0127 123.421 53.1991 112.79 64.2504 115.505M46.8009 129.076C46.7201 133.923 48.4489 142.842 56.0104 139.74M56.0104 139.74C58.8378 134.004 66.2862 123.018 73.4598 124.956M56.0104 139.74C54.2331 144.264 54.0231 152.633 67.401 149.919M67.401 149.919C69.8245 144.506 76.3681 133.778 83.154 134.166M67.401 149.919C66.27 153.635 68.0796 160.325 77.5798 157.998M95.0293 144.587C88.405 143.86 75.641 146.865 77.5798 164.702C77.4183 166.641 78.8886 170.228 86.0622 169.065M86.0622 169.065C88.3242 164.218 95.1263 154.475 104.239 154.281M86.0622 169.065C84.6889 174.941 84.8989 185.252 96.7258 179.486M96.7258 179.486C100.361 174.558 108.747 164.702 113.206 164.702M96.7258 179.486C93.0905 184.414 98.6646 194.027 107.389 185.925M107.389 185.925C111.631 190.055 115.764 194.071 119.749 197.934M127.02 174.639C119.184 176.659 105.014 183.897 111.025 196.693C111.752 198.329 114.515 200.866 119.749 197.934M119.749 197.934C123.289 201.366 126.712 204.677 129.992 207.841M138.895 184.575C133.079 185.383 121.107 189.859 119.749 201.298C118.392 212.737 126.013 210.426 129.992 207.841M129.992 207.841C134.007 211.714 138.027 215.366 141.561 218.747M147.862 196.693C140.43 199.844 123.995 209.637 129.201 218.747C134.048 227.23 141.561 218.747 141.561 218.747M141.561 218.747C146.191 223.176 150.344 227.141 153.921 230.529M160.707 206.63C154.002 208.268 141.319 214.973 144.227 228.684C146.36 236.633 151.579 233.226 153.921 230.529M153.921 230.529C159.999 236.285 164.418 240.377 166.7 242.256M174.521 218.747C167.897 217.859 155.86 220.124 155.86 236.439C155.86 245.822 159.495 246.86 166.7 242.256M62.7965 70.1844C73.0561 81.3327 94.254 103.969 96.9683 105.326C100.361 107.022 164.343 62.9138 175.733 62.4291C165.958 52.3311 144.712 31.0686 140.834 30.6808C135.987 30.1961 93.5754 44.9797 62.7965 70.1844Z" stroke="#D9D9D9" style="stroke:#D9D9D9;stroke:color(display-p3 0.8510 0.8510 0.8510);stroke-opacity:1;"/>
</svg>
