<svg width="166" height="166" viewBox="0 0 166 166" fill="none" xmlns="http://www.w3.org/2000/svg">
<path d="M129.26 7.10371L18.2018 118.675L4.10841 155.318C2.54234 159.39 6.57735 163.374 10.629 161.757L46.9605 147.252L158.201 36.0119C162.106 32.1066 162.106 25.775 158.201 21.8697L143.419 7.08739C139.507 3.17578 133.163 3.18309 129.26 7.10371Z" stroke="#D9D9D9" style="stroke:#D9D9D9;stroke:color(display-p3 0.8510 0.8510 0.8510);stroke-opacity:1;"/>
<path d="M27.8486 127.958L124.682 32.0351L114.671 22.0242L143.612 50.965" stroke="#D9D9D9" style="stroke:#D9D9D9;stroke:color(display-p3 0.8510 0.8510 0.8510);stroke-opacity:1;"/>
<path d="M38.2236 137.059L133.783 41.5" stroke="#D9D9D9" style="stroke:#D9D9D9;stroke:color(display-p3 0.8510 0.8510 0.8510);stroke-opacity:1;"/>
<path d="M27.8484 127.776C27.8484 127.776 22.0485 129.192 19.6576 127.048C17.1867 124.833 18.2015 118.675 18.2015 118.675" stroke="#D9D9D9" style="stroke:#D9D9D9;stroke:color(display-p3 0.8510 0.8510 0.8510);stroke-opacity:1;"/>
<path d="M28.0309 127.776C28.0309 127.776 26.7176 133.725 28.941 136.149C31.4512 138.886 38.4059 137.059 38.4059 137.059C38.4059 137.059 37.0817 142.78 39.134 145.25C41.2058 147.743 47.1428 147.434 47.1428 147.434" stroke="#D9D9D9" style="stroke:#D9D9D9;stroke:color(display-p3 0.8510 0.8510 0.8510);stroke-opacity:1;"/>
<path d="M11.4671 161.449L4.36841 154.715" stroke="#D9D9D9" style="stroke:#D9D9D9;stroke:color(display-p3 0.8510 0.8510 0.8510);stroke-opacity:1;"/>
</svg>
