<svg width="349" height="100" viewBox="0 0 349 100" fill="none" xmlns="http://www.w3.org/2000/svg">
<g clip-path="url(#clip0_116_663)">
<path d="M134.344 37.2793C134.344 42.3598 130.486 45.6612 123.85 45.6612C117.213 45.6612 111.759 42.2505 111.759 36.3517H118.436C118.436 39.1702 120.884 40.2097 123.85 40.2097C126.335 40.2097 127.67 39.2465 127.67 37.9096C127.67 35.7951 124.813 35.3147 121.069 34.2016C116.507 32.8673 112.501 30.9002 112.501 26.0052C112.501 20.2207 117.026 17.9588 122.737 17.9588C128.93 17.9588 133.788 21.2221 133.973 26.5999H127.296C126.999 24.5972 125.293 23.4103 122.734 23.4103C120.731 23.4103 119.173 24.0406 119.173 25.5249C119.173 27.1565 120.843 27.675 124.18 28.6026C129.187 29.9751 134.342 31.6067 134.342 37.2819L134.344 37.2793Z" fill="#0E0E0E" style="fill:#0E0E0E;fill:color(display-p3 0.0549 0.0549 0.0549);fill-opacity:1;"/>
<path d="M144.798 30.5312V38.3946C144.798 40.5447 145.576 40.5447 148.1 40.5447V44.9949C147.025 45.2186 146.097 45.4041 144.427 45.4041C140.089 45.4041 138.864 43.104 138.864 38.8394V30.5312H136.23V26.081H138.864V20.7769H144.798V26.081H148.1V30.5312H144.798Z" fill="#0E0E0E" style="fill:#0E0E0E;fill:color(display-p3 0.0549 0.0549 0.0549);fill-opacity:1;"/>
<path d="M169.783 26.0808V45.0684H163.848V42.3235H163.774C162.773 44.067 160.918 45.6605 157.545 45.6605C153.872 45.6605 151.389 43.2512 151.389 38.9103V26.0782H157.324V37.0194C157.324 39.8761 158.325 40.8393 160.29 40.8393C162.552 40.8393 163.851 39.6905 163.851 37.0575V26.0808H169.785H169.783Z" fill="#0E0E0E" style="fill:#0E0E0E;fill:color(display-p3 0.0549 0.0549 0.0549);fill-opacity:1;"/>
<path d="M192.078 18.5507V45.0663H186.143V43.1754H186.069C185.327 44.1767 183.324 45.661 180.579 45.661C175.534 45.661 172.309 41.803 172.309 35.5737C172.309 29.3445 175.534 25.4865 180.579 25.4865C183.324 25.4865 185.327 26.9707 186.069 27.9721H186.143V18.5533H192.078V18.5507ZM186.031 35.5737C186.031 31.8657 184.547 29.9366 182.137 29.9366C179.728 29.9366 178.244 31.8657 178.244 35.5737C178.244 39.2818 179.728 41.2108 182.137 41.2108C184.547 41.2108 186.031 39.2818 186.031 35.5737Z" fill="#0E0E0E" style="fill:#0E0E0E;fill:color(display-p3 0.0549 0.0549 0.0549);fill-opacity:1;"/>
<path d="M208.248 39.3197H214.145C213.105 43.1396 210.139 45.6608 204.985 45.6608C198.679 45.6608 194.858 41.508 194.858 35.5735C194.858 29.6391 198.605 25.4863 204.649 25.4863C211.14 25.4863 214.44 30.2338 214.44 37.1315H200.791C200.791 39.8026 202.755 41.2106 204.87 41.2106C206.985 41.2106 207.874 40.2473 208.245 39.3197H208.248ZM200.793 33.5353H208.507C208.507 30.9022 206.914 29.568 204.649 29.568C202.384 29.568 200.791 30.9022 200.791 33.5353H200.793Z" fill="#0E0E0E" style="fill:#0E0E0E;fill:color(display-p3 0.0549 0.0549 0.0549);fill-opacity:1;"/>
<path d="M235.619 32.2365V45.0686H229.685V34.1274C229.685 31.2708 228.683 30.3076 226.719 30.3076C224.456 30.3076 223.158 31.4563 223.158 34.0893V45.0661H217.223V26.0785H223.158V28.8233H223.231C224.233 27.0798 226.088 25.4863 229.461 25.4863C233.134 25.4863 235.617 27.8956 235.617 32.2365H235.619Z" fill="#0E0E0E" style="fill:#0E0E0E;fill:color(display-p3 0.0549 0.0549 0.0549);fill-opacity:1;"/>
<path d="M246.261 30.5312V38.3946C246.261 40.5447 247.039 40.5447 249.563 40.5447V44.9949C248.488 45.2186 247.56 45.4041 245.89 45.4041C241.551 45.4041 240.326 43.104 240.326 38.8394V30.5312H237.694V26.081H240.326V20.7769H246.261V26.081H249.563V30.5312H246.261Z" fill="#0E0E0E" style="fill:#0E0E0E;fill:color(display-p3 0.0549 0.0549 0.0549);fill-opacity:1;"/>
<path d="M264.843 39.3197H270.74C269.7 43.1396 266.734 45.6608 261.58 45.6608C255.274 45.6608 251.454 41.508 251.454 35.5735C251.454 29.6391 255.2 25.4863 261.244 25.4863C267.736 25.4863 271.035 30.2338 271.035 37.1315H257.386C257.386 39.8026 259.351 41.2106 261.465 41.2106C263.58 41.2106 264.47 40.2473 264.841 39.3197H264.843ZM257.389 33.5353H265.102C265.102 30.9022 263.509 29.568 261.244 29.568C258.98 29.568 257.386 30.9022 257.386 33.5353H257.389Z" fill="#0E0E0E" style="fill:#0E0E0E;fill:color(display-p3 0.0549 0.0549 0.0549);fill-opacity:1;"/>
<path d="M286.093 25.8948V31.0871H286.02C282.98 30.5305 279.752 32.2003 279.752 36.2413V45.0679H273.817V26.0803H279.752V29.1962H279.826C280.754 27.0817 282.385 25.7473 284.462 25.7473C284.981 25.7473 285.425 25.7473 286.093 25.8948Z" fill="#0E0E0E" style="fill:#0E0E0E;fill:color(display-p3 0.0549 0.0549 0.0549);fill-opacity:1;"/>
<path d="M307.159 32.2367V45.0688H301.224V34.1276C301.224 31.271 300.297 30.3077 298.146 30.3077C296.255 30.3077 294.697 31.4565 294.697 34.0895V45.0663H288.762V18.5507H294.697V28.8235H294.771C295.772 27.08 297.628 25.4865 300.667 25.4865C304.673 25.4865 307.159 27.8958 307.159 32.2367Z" fill="#0E0E0E" style="fill:#0E0E0E;fill:color(display-p3 0.0549 0.0549 0.0549);fill-opacity:1;"/>
<path d="M328.639 26.0808V45.0684H322.705V42.3235H322.631C321.629 44.067 319.774 45.6605 316.401 45.6605C312.728 45.6605 310.245 43.2512 310.245 38.9103V26.0782H316.18V37.0194C316.18 39.8761 317.181 40.8393 319.146 40.8393C321.408 40.8393 322.707 39.6905 322.707 37.0575V26.0808H328.642H328.639Z" fill="#0E0E0E" style="fill:#0E0E0E;fill:color(display-p3 0.0549 0.0549 0.0549);fill-opacity:1;"/>
<path d="M349 39.4671C349 43.4725 345.957 45.6608 340.691 45.6608C333.905 45.6608 331.308 42.6186 331.122 38.7631H336.685C336.871 40.654 338.132 41.5817 340.467 41.5817C342.137 41.5817 343.062 41.0251 343.062 39.95C343.062 38.3184 341.283 38.0947 338.279 37.4288C335.051 36.7248 331.493 35.538 331.493 31.5681C331.493 28.1193 334.459 25.4863 339.801 25.4863C345.884 25.4863 348.258 28.564 348.443 31.9011H342.88C342.694 30.3812 341.878 29.5654 339.949 29.5654C338.279 29.5654 337.428 30.1576 337.428 31.0853C337.428 32.4195 338.615 32.4577 341.545 33.088C345.292 33.9038 349 35.1643 349 39.4671Z" fill="#0E0E0E" style="fill:#0E0E0E;fill:color(display-p3 0.0549 0.0549 0.0549);fill-opacity:1;"/>
<path d="M136.301 67.1342C136.301 75.1148 132.181 81.5347 123.938 81.5347C115.696 81.5347 111.576 75.1148 111.576 67.1342C111.576 59.1541 115.696 53.1689 123.938 53.1689C132.181 53.1689 136.301 59.1541 136.301 67.1342ZM131.79 67.1342C131.79 59.2837 128.752 55.5551 123.938 55.5551C119.124 55.5551 116.087 59.2862 116.087 67.1342C116.087 74.9826 119.124 79.148 123.938 79.148C128.752 79.148 131.79 74.9852 131.79 67.1342Z" fill="#0E0E0E" style="fill:#0E0E0E;fill:color(display-p3 0.0549 0.0549 0.0549);fill-opacity:1;"/>
<path d="M159.204 80.1031V81.2316H153.046V77.0255C152.308 79.323 150.008 81.5367 146.712 81.5367C142.419 81.5367 138.817 79.3684 138.817 71.3883C138.817 63.4082 142.419 61.2398 146.712 61.2398C150.052 61.2398 152.349 63.2781 153.046 65.4464V56.6423C153.046 55.0821 152.395 54.7337 151.051 54.7337V53.6051H157.209V78.1969C157.209 79.7577 157.86 80.1056 159.204 80.1056V80.1031ZM153.046 71.3857C153.046 65.052 150.227 63.3189 147.797 63.3189C144.11 63.3189 143.243 66.8311 143.243 71.3857C143.243 75.9403 144.023 79.4526 147.797 79.4526C150.227 79.4526 153.046 77.7168 153.046 71.3857Z" fill="#0E0E0E" style="fill:#0E0E0E;fill:color(display-p3 0.0549 0.0549 0.0549);fill-opacity:1;"/>
<path d="M177.333 75.7224C176.639 77.8041 174.731 81.5347 169.698 81.5347C163.972 81.5347 160.157 78.1092 160.157 71.3005C160.157 64.4913 163.669 61.2383 169.179 61.2383C174.342 61.2383 177.117 64.1867 177.117 69.0025C177.117 69.9128 177.117 70.4337 177.031 71.1276L164.149 71.5189C164.279 76.5051 166.709 79.1077 170.699 79.1077C174.169 79.1077 175.732 76.8964 176.469 75.377L177.336 75.725L177.333 75.7224ZM164.19 70.0827L172.995 69.3893C173.124 68.825 173.211 68.2173 173.211 67.4806C173.211 65.2694 171.779 63.3173 169.307 63.3173C166.531 63.3173 164.449 65.1827 164.188 70.0827H164.19Z" fill="#0E0E0E" style="fill:#0E0E0E;fill:color(display-p3 0.0549 0.0549 0.0549);fill-opacity:1;"/>
<path d="M199.108 80.1046V81.2332H190.954V80.1046C192.299 80.1046 192.95 79.7566 192.95 78.1959V69.2168C192.95 65.4429 192.342 63.623 189.826 63.623C187.31 63.623 184.969 65.7908 184.969 73.4255V78.1959C184.969 79.7566 185.619 80.1046 186.964 80.1046V81.2332H178.81V80.1046C180.155 80.1046 180.806 79.7566 180.806 78.1959V64.6648C180.806 63.1046 180.155 62.7561 178.81 62.7561V61.6281H184.969V66.876H185.055C185.403 64.0143 187.266 61.2362 191.084 61.2362C195.204 61.2362 197.113 63.7959 197.113 68.4367V78.1959C197.113 79.7566 197.763 80.1046 199.108 80.1046Z" fill="#0E0E0E" style="fill:#0E0E0E;fill:color(display-p3 0.0549 0.0549 0.0549);fill-opacity:1;"/>
<path d="M216.37 75.7224C216.37 80.7092 211.946 81.5347 208.781 81.5347C204.618 81.5347 202.275 79.799 201.191 78.4112V72.9903H201.929C202.796 77.4153 205.182 79.4536 208.652 79.4536C211.081 79.4536 212.642 78.2816 212.642 76.1138C212.642 74.5102 211.689 73.5546 209.866 73.0765L206.005 72.0806C203.144 71.3434 201.624 69.6939 201.624 67.2235C201.624 63.8408 204.313 61.2383 209.127 61.2383C211.556 61.2383 213.897 62.0189 215.417 63.3199L215.852 68.4388L215.115 68.525C213.9 65.2286 212.167 63.3199 209.129 63.3199C207.004 63.3199 205.355 64.4913 205.355 66.2679C205.355 67.5694 205.832 68.3061 208.26 68.9571L211.6 69.8668C215.461 70.9087 216.37 73.2066 216.37 75.7224Z" fill="#0E0E0E" style="fill:#0E0E0E;fill:color(display-p3 0.0549 0.0549 0.0549);fill-opacity:1;"/>
<path d="M235.977 75.7224C235.283 77.8041 233.374 81.5347 228.342 81.5347C222.616 81.5347 218.801 78.1092 218.801 71.3005C218.801 64.4913 222.313 61.2383 227.824 61.2383C232.986 61.2383 235.761 64.1867 235.761 69.0025C235.761 69.9128 235.761 70.4337 235.674 71.1276L222.794 71.5189C222.923 76.5051 225.353 79.1077 229.343 79.1077C232.813 79.1077 234.376 76.8964 235.113 75.377L235.98 75.725L235.977 75.7224ZM222.834 70.0827L231.639 69.3893C231.768 68.825 231.854 68.2173 231.854 67.4806C231.854 65.2694 230.424 63.3173 227.951 63.3173C225.175 63.3173 223.094 65.1827 222.832 70.0827H222.834Z" fill="#0E0E0E" style="fill:#0E0E0E;fill:color(display-p3 0.0549 0.0549 0.0549);fill-opacity:1;"/>
<path d="M49.7529 0C22.2751 0 0 22.2738 0 49.75C0 77.226 22.2751 99.5 49.7529 99.5C77.2305 99.5 99.5058 77.226 99.5058 49.75C99.5058 22.2738 77.228 0 49.7529 0ZM84.332 54.3372L49.5725 21.2419L21.3652 48.891H71.0343C72.8492 48.891 74.3232 50.3625 74.3232 52.1796V76.2505C74.3232 78.0673 72.8517 79.5388 71.0343 79.5388H28.7411C26.9314 79.5388 25.4623 78.0776 25.4522 76.2679L25.414 68.8112C25.4038 66.9944 26.8704 65.5148 28.6851 65.5071H28.7029C30.51 65.5071 31.9817 66.9689 31.9893 68.7781L32.0096 72.9617H67.7427V55.4684H13.3132C11.9763 55.4684 10.7741 54.6602 10.2683 53.4224C9.76251 52.1847 10.0573 50.7666 11.0104 49.8313L47.2367 14.3239C48.5024 13.0837 50.5231 13.0684 51.8066 14.2909L88.869 49.5772C90.1828 50.8302 90.2339 52.9117 88.9833 54.2255C87.7301 55.5398 85.6514 55.5929 84.3345 54.3398L84.332 54.3372Z" fill="#0E0E0E" style="fill:#0E0E0E;fill:color(display-p3 0.0549 0.0549 0.0549);fill-opacity:1;"/>
</g>
<defs>
<clipPath id="clip0_116_663">
<rect width="349" height="100" fill="white" style="fill:white;fill-opacity:1;"/>
</clipPath>
</defs>
</svg>
