<svg width="254" height="154" viewBox="0 0 254 154" fill="none" xmlns="http://www.w3.org/2000/svg">
<path d="M248.372 75.9738C251.347 83.6738 249.612 95.6613 248.372 100.693C220.518 113.526 161.397 140.855 147.747 147.505C134.097 154.155 122.956 153.338 119.091 152.099C86.0161 149.824 31.5181 124.026 6.65355 109.443C5.26812 109.078 2.62852 107.343 3.15352 103.318C3.67852 99.2925 2.88178 91.1404 2.41778 87.5675M248.372 75.9738C248.883 78.2342 249.072 83.105 245.747 84.505C242.422 85.905 234.737 89.755 231.31 91.505M248.372 75.9738C247.241 75.2773 246.005 75.0659 244.872 75.0914M231.31 91.505C229.852 94.5675 225.372 100.255 222.997 101.13C216.347 103.58 210.747 102.224 206.591 102.224M231.31 91.505C233.57 86.3279 238.962 77.0693 241.154 75.9738M206.591 102.224L175.747 115.568M206.591 102.224C201.516 100.649 190.768 100.547 186.029 100.693M175.747 115.568C174.362 117.099 172.641 119.855 169.841 120.38C166.341 121.036 159.341 122.786 158.466 122.13M175.747 115.568L186.029 100.693M158.466 122.13C149.862 126.14 131.429 133.899 126.529 132.849C120.404 131.536 115.591 129.786 112.966 129.786C110.341 129.786 96.9974 127.161 93.4974 125.193C92.9736 124.898 92.3029 124.74 91.5286 124.676M158.466 122.13L130.904 117.974M31.1536 101.13C31.8098 101.349 40.1223 107.911 42.7473 108.786C44.1708 109.261 47.6179 109.762 50.6223 110.127M31.1536 101.13C30.6286 100.955 18.9765 95.9529 13.2161 93.4738C12.9243 93.3049 12.5498 93.0946 12.1223 92.8629M31.1536 101.13C30.0598 100.414 25.466 91.7238 24.591 92.1613M2.41778 87.5675C3.81266 89.0997 5.62939 90.132 6.65355 90.4113C8.17317 90.8257 10.5198 91.9944 12.1223 92.8629M2.41778 87.5675C0.53541 85.4999 -0.57874 82.5218 2.05979 79.255C2.39527 78.7518 2.83364 77.5798 2.54643 76.1926M91.5286 124.676C87.1279 124.311 79.3784 126.955 76.2161 124.536C73.822 122.705 69.2518 118.608 65.7161 115.804M91.5286 124.676L116.247 118.63M116.247 118.63C119.237 120.234 126.354 122.349 130.904 117.974M116.247 118.63C113.768 116.515 108.679 112.155 108.154 111.63C107.497 110.974 100.716 105.068 92.4036 110.536C85.7536 114.911 77.9661 106.526 74.9036 101.786M130.904 117.974C132.945 115.276 138.647 109.924 145.122 110.099C153.216 110.318 159.122 113.38 161.31 112.505C163.497 111.63 174.872 94.1301 178.591 95.2238C180.951 95.2238 186.193 95.5807 189.106 96.9738M186.029 100.693L189.106 96.9738M241.154 75.9738C214.029 76.6301 216.216 78.1613 213.591 80.1301C211.378 81.7903 205.279 95.4426 202.216 96.7551C199.766 97.8051 192.737 97.4842 189.529 97.1926C189.394 97.117 189.253 97.0441 189.106 96.9738M241.154 75.9738C241.68 75.7104 243.159 75.1298 244.872 75.0914M125.872 146.63C125.727 143.641 125.391 137.355 125.216 136.13M12.1223 92.8629C15.9869 92.7749 23.891 92.5113 24.591 92.1613M24.591 92.1613C22.9522 90.2245 20.5926 87.4379 18.2913 84.7238M50.6223 110.127C52.0501 110.3 53.378 110.442 54.3411 110.536C55.9452 111.193 59.5911 112.593 61.3411 112.943C62.1203 113.098 63.7598 114.253 65.7161 115.804M50.6223 110.127C50.8821 110.158 54.5346 109.029 58.9348 107.586M74.9036 101.786C74.1106 102.447 65.6516 105.383 58.9348 107.586M74.9036 101.786C74.9036 101.203 73.5473 99.9488 68.1223 99.5988C51.7161 102.005 47.3411 98.9426 46.4661 97.1926C45.591 95.4426 38.038 85.7662 36.6223 85.3801C34.216 84.7238 25.0285 85.1613 18.2913 84.7238M58.9348 107.586C60.7577 109.972 64.6661 114.957 65.7161 115.804M244.872 75.0914C247.497 74.073 252.879 71.6863 253.404 70.2863C253.929 68.8863 249.539 64.1613 247.279 61.9738M247.279 61.9738C250.05 59.2759 254.147 50.5113 248.372 37.0363C231.529 19.9738 150.591 6.19251 137.247 2.69251C126.572 -0.107493 116.612 0.359174 112.966 0.942507C74.2911 6.54251 23.2384 31.4217 2.54643 43.1613C-0.516075 62.8488 4.02852 69.1196 8.40352 68.5363M247.279 61.9738L134.841 107.911C131.56 109.151 122.591 110.886 112.966 107.911C103.341 104.936 39.2473 80.4217 8.40352 68.5363M8.40352 68.5363C5.85145 69.8488 1.00981 72.9551 2.05979 74.8801C2.30464 75.3289 2.45908 75.7707 2.54643 76.1926M2.54643 76.1926C4.86338 75.6092 9.80352 74.7926 11.0285 76.1926C11.7529 77.0205 14.961 80.7961 18.2913 84.7238M126.091 103.099C126.164 99.8176 126.091 92.8613 125.216 91.2863M6.65355 46.6613C44.2786 61.0259 117.779 88.0051 125.216 87.3488C131.286 86.8132 243.997 42.0675 244.872 41.1925M122.81 73.5676C88.9765 58.7655 23.9348 31.13 34.4348 39.005C47.5598 48.8488 112.529 73.5676 122.81 73.5676ZM140.529 64.1613C144.685 65.4009 150.504 66.3926 140.529 60.4426C128.06 53.0051 46.0285 24.7863 55.8723 30.6925C63.7473 35.4175 115.591 54.9738 140.529 64.1613ZM163.716 55.1926C166.56 55.1196 170.06 54.0113 161.31 50.1613C150.372 45.3488 76.2161 19.0988 79.2786 21.9425C82.3411 24.7863 161.091 55.6953 163.716 55.1926ZM190.841 44.255C191.935 45.5675 192.416 47.6238 185.591 45.3488C177.06 42.505 91.3098 13.4113 100.497 14.0675C109.685 14.7238 186.904 39.6613 190.841 44.255ZM207.685 36.5988C211.987 37.6196 217.354 38.3925 204.404 33.3175C188.216 26.9738 112.529 1.16127 123.904 6.63002C135.279 12.0988 203.489 36.5988 207.685 36.5988Z" stroke="#D9D9D9" style="stroke:#D9D9D9;stroke:color(display-p3 0.8510 0.8510 0.8510);stroke-opacity:1;"/>
</svg>
